<svg id="Layer_2" data-name="Layer 2" xmlns="http://www.w3.org/2000/svg" xmlns:xlink="http://www.w3.org/1999/xlink" viewBox="0 0 310 310">
    <defs>
        <style>
            .cls-1 {
            fill: url(#linear-gradient);
            }

            .cls-1, .cls-2 {
            stroke-width: 0px;
            }

            .cls-2 {
            fill: #fff;
            }
        </style>
        <linearGradient id="linear-gradient" x1="27.05" y1="27.05" x2="285.7" y2="275.7" gradientUnits="userSpaceOnUse">
            <stop offset="0" stop-color="#3650dc"/>
            <stop offset=".02" stop-color="#354fd6"/>
            <stop offset=".1" stop-color="#324bc4"/>
            <stop offset=".19" stop-color="#3049b8"/>
            <stop offset=".28" stop-color="#3049b5"/>
            <stop offset=".67" stop-color="#182456"/>
            <stop offset=".89" stop-color="#0b0f1e"/>
            <stop offset="1" stop-color="#0b0b0b"/>
        </linearGradient>
    </defs>
    <g id="Translate_icons" data-name="Translate icons">
        <rect class="cls-1" width="310" height="310" rx="92.36" ry="92.36"/>
        <path class="cls-2" d="M85.94,121.42h-12.55l-2.01,5.94h-8.57l12.16-33.62h9.48l12.16,33.62h-8.67l-2.01-5.94ZM83.83,115.1l-4.17-12.31-4.12,12.31h8.29Z"/>
        <g>
            <rect class="cls-2" x="208.5" y="198.08" width="36.61" height="5.86"/>
            <path class="cls-2" d="M210.91,230.64l-1.66-5.62c25.55-7.55,25.12-23.19,25.09-23.85l5.85-.35c.05.85.97,20.88-29.28,29.82Z"/>
            <path class="cls-2" d="M237.84,228.72c-20.55-6.29-23.79-26.43-23.92-27.28l5.79-.88c.11.71,2.89,17.37,19.84,22.55l-1.71,5.6Z"/>
            <rect class="cls-2" x="225.17" y="193.49" width="5.12" height="7.77" transform="translate(-55.24 93.72) rotate(-20.8)"/>
        </g>
        <path class="cls-2" d="M79.69,151.41c-21.59,0-39.15-17.56-39.15-39.15s17.56-39.15,39.15-39.15,39.16,17.56,39.16,39.15-17.57,39.15-39.16,39.15ZM79.69,81.1c-17.18,0-31.15,13.98-31.15,31.15s13.98,31.15,31.15,31.15,31.16-13.98,31.16-31.15-13.98-31.15-31.16-31.15Z"/>
        <path class="cls-2" d="M226.8,251.94c-21.59,0-39.15-17.56-39.15-39.15s17.56-39.15,39.15-39.15,39.15,17.56,39.15,39.15-17.56,39.15-39.15,39.15ZM226.8,181.63c-17.18,0-31.15,13.98-31.15,31.15s13.98,31.15,31.15,31.15,31.15-13.98,31.15-31.15-13.98-31.15-31.15-31.15Z"/>
        <g>
            <path class="cls-2" d="M247.13,147.81c-5.36-8.38-12.56-15.01-20.94-19.33-3.59-33.86-32.5-59.93-67.19-59.93-13.54,0-26.67,4.14-37.96,11.97-3.9,2.7-7.48,5.77-10.71,9.16,2.58,2.64,4.36,6.15,6.01,9.49,3.09-3.48,6.98-7.08,10.86-9.76,9.48-6.57,20.47-10.04,31.8-10.04,30.06,0,54.95,23.27,56.65,52.97.12,2.03,1.37,3.83,3.23,4.64,7.69,3.36,14.3,9.13,19.13,16.67,4.9,7.65,7.49,16.41,7.49,25.35,0,1.37-.07,2.74-.19,4.09,3.7,1.78,7.03,4.19,9.88,7.08.75-3.65,1.13-7.38,1.13-11.17,0-11-3.18-21.78-9.19-31.18Z"/>
            <path class="cls-2" d="M111.56,223.39c-14.52,0-28.16-5.6-38.42-15.77-10.25-10.15-15.89-23.65-15.89-38,0-9.39,2.67-18.63,7.62-26.7-3.02-2.15-5.69-4.75-7.89-7.72-6.83,10.23-10.54,22.21-10.54,34.42,0,8.72,1.73,17.19,5.13,25.16,3.28,7.69,7.98,14.6,13.97,20.53,5.98,5.93,12.94,10.58,20.7,13.83,8.03,3.36,16.55,5.07,25.34,5.07h89.24c-2.17-3.26-3.8-6.91-4.79-10.82h-84.46Z"/>
        </g>
        <path class="cls-2" d="M133.77,138.49c.39-.38,9.6-9.23,20.47,1.62l24.51,24.51h-9.38c-.74,0-1.48.28-2.05.85-1.13,1.13-1.13,2.96,0,4.09.57.57,1.31.85,2.05.85h16.36s.07-.02.11-.02c.33,0,.66-.07.97-.19h.02s0-.01,0-.01c.3-.13.59-.33.85-.59.12-.12.22-.24.31-.37h0c.08-.1.15-.2.21-.3v.02c.27-.45.41-.94.42-1.43h0s0-16.36,0-16.36c0-.74-.28-1.48-.85-2.05-1.13-1.13-2.96-1.13-4.09,0-.56.56-.85,1.31-.85,2.05h0v9.38s-24.51-24.52-24.51-24.52c-11.91-11.89-23.93-6.28-28.62-1.65h-.01c-1.13,1.14-1.13,2.96-.01,4.09h.01c1.12,1.14,2.95,1.14,4.08.03h0ZM173.07,186.77c-1.15-1.06-2.91-1.08-4.08-.06h0c-.98.95-9.89,8.97-20.48-1.61l-24.51-24.51h9.38c.74,0,1.48-.28,2.05-.85,1.13-1.13,1.13-2.96,0-4.09-.56-.56-1.31-.85-2.05-.85h-16.36s-.07.02-.11.02c-.33,0-.66.07-.98.19h-.02s0,.01,0,.01c-.21.09-.43.22-.63.39h0c-.06.06-.12.12-.19.18-.12.12-.24.25-.34.39h.01c-.39.51-.6,1.11-.63,1.71h0s0,16.36,0,16.36c0,.74.28,1.48.85,2.05,1.13,1.13,2.96,1.13,4.09,0,.57-.57.85-1.31.85-2.05v-9.38s24.51,24.51,24.51,24.51c11.91,11.89,23.93,6.28,28.62,1.65h.01c1.12-1.13,1.13-2.95.02-4.08h0s0,0,0,0Z"/>
    </g>
</svg>
