<svg id="Layer_2" data-name="Layer 2" xmlns="http://www.w3.org/2000/svg" xmlns:xlink="http://www.w3.org/1999/xlink" viewBox="40 40 225 225">
    <defs>
        <style>
            .cls-1, .cls-2 {
            stroke-width: 1px;
            }

            .cls-2 {
            fill: #fff;
            }
        </style>
    </defs>
    <g id="Translate_icons" data-name="Translate icons">
        <path class="cls-2" d="M79.69,151.41c-21.59,0-39.15-17.56-39.15-39.15s17.56-39.15,39.15-39.15,39.16,17.56,39.16,39.15-17.57,39.15-39.16,39.15ZM79.69,81.1c-17.18,0-31.15,13.98-31.15,31.15s13.98,31.15,31.15,31.15,31.16-13.98,31.16-31.15-13.98-31.15-31.16-31.15Z"/>
        <path class="cls-2" d="M226.8,251.94c-21.59,0-39.15-17.56-39.15-39.15s17.56-39.15,39.15-39.15,39.15,17.56,39.15,39.15-17.56,39.15-39.15,39.15ZM226.8,181.63c-17.18,0-31.15,13.98-31.15,31.15s13.98,31.15,31.15,31.15,31.15-13.98,31.15-31.15-13.98-31.15-31.15-31.15Z"/>
        <g>
            <path class="cls-2" d="M247.13,147.81c-5.36-8.38-12.56-15.01-20.94-19.33-3.59-33.86-32.5-59.93-67.19-59.93-13.54,0-26.67,4.14-37.96,11.97-3.9,2.7-7.48,5.77-10.71,9.16,2.58,2.64,4.36,6.15,6.01,9.49,3.09-3.48,6.98-7.08,10.86-9.76,9.48-6.57,20.47-10.04,31.8-10.04,30.06,0,54.95,23.27,56.65,52.97.12,2.03,1.37,3.83,3.23,4.64,7.69,3.36,14.3,9.13,19.13,16.67,4.9,7.65,7.49,16.41,7.49,25.35,0,1.37-.07,2.74-.19,4.09,3.7,1.78,7.03,4.19,9.88,7.08.75-3.65,1.13-7.38,1.13-11.17,0-11-3.18-21.78-9.19-31.18Z"/>
            <path class="cls-2" d="M111.56,223.39c-14.52,0-28.16-5.6-38.42-15.77-10.25-10.15-15.89-23.65-15.89-38,0-9.39,2.67-18.63,7.62-26.7-3.02-2.15-5.69-4.75-7.89-7.72-6.83,10.23-10.54,22.21-10.54,34.42,0,8.72,1.73,17.19,5.13,25.16,3.28,7.69,7.98,14.6,13.97,20.53,5.98,5.93,12.94,10.58,20.7,13.83,8.03,3.36,16.55,5.07,25.34,5.07h89.24c-2.17-3.26-3.8-6.91-4.79-10.82h-84.46Z"/>
        </g>
    </g>
</svg>
